Coordinates
version=1
nRows=4
nColumns=63
inDegrees=yes

Units are S.I. units (second, meters, Newtons, ...)
If the header above contains a line with 'inDegrees', this indicates whether rotational values are in degrees (yes) or radians (no).

endheader
time	pelvis_tilt	pelvis_list	pelvis_rotation	pelvis_tx	pelvis_ty	pelvis_tz	hip_flexion_r	hip_adduction_r	hip_rotation_r	knee_angle_r	knee_angle_r_beta	ankle_angle_r	subtalar_angle_r	mtp_angle_r	hip_flexion_l	hip_adduction_l	hip_rotation_l	knee_angle_l	knee_angle_l_beta	ankle_angle_l	subtalar_angle_l	mtp_angle_l	L5_S1_Flex_Ext	L5_S1_Lat_Bending	L5_S1_axial_rotation	L4_L5_Flex_Ext	L4_L5_Lat_Bending	L4_L5_axial_rotation	L3_L4_Flex_Ext	L3_L4_Lat_Bending	L3_L4_axial_rotation	L2_L3_Flex_Ext	L2_L3_Lat_Bending	L2_L3_axial_rotation	L1_L2_Flex_Ext	L1_L2_Lat_Bending	L1_L2_axial_rotation	L1_T12_Flex_Ext	L1_T12_Lat_Bending	L1_T12_axial_rotation	Abs_r3	Abs_r2	Abs_r1	Abs_t1	Abs_t2	neck_flexion	neck_bending	neck_rotation	arm_flex_r	arm_add_r	arm_rot_r	elbow_flex_r	pro_sup_r	wrist_flex_r	wrist_dev_r	arm_flex_l	arm_add_l	arm_rot_l	elbow_flex_l	pro_sup_l	wrist_flex_l	wrist_dev_l
      0.00800000	    -43.83506291	     -4.17290255	     -3.37872297	     -0.38244037	      1.12838610	      0.01055842	    111.27024932	     -5.61459181	     -6.27037924	     85.66761957	      1.49518202	     16.32699417	     -3.82338075	      0.00000000	     83.98537553	     -5.35641634	      9.72386966	     67.70731020	      1.18171549	     -0.39627776	    -11.59652323	      0.00000000	     -0.08050331	      0.98783255	      0.45766583	     -0.14950269	      1.31381729	      0.48626994	     -0.13225888	      2.40181606	      0.48626994	     -0.09200723	      2.40181606	      0.40045760	     -0.07475537	      2.01438814	      0.37185349	     -0.04599959	      1.53015262	      0.34324937	     -0.57502707	     11.17455938	      2.54540004	      0.00000000	      0.00000000	     -0.00000000	      0.00000000	      0.00000001	     65.54141379	    -15.28670454	     35.89272944	     40.26288011	     60.35006337	      0.00000000	      5.46561587	     62.56452065	     -6.42622078	     16.80115623	     32.89554954	     58.92659993	      0.00000000	      5.46561587
      0.01700000	    -43.95001805	     -4.02856437	     -1.43718245	     -0.38381620	      1.12944234	      0.01063430	    109.24864576	     -6.59894431	     -5.80499383	     81.00899212	      1.41387364	     15.08053281	     -4.48674224	      0.00000000	     86.14666488	     -4.32687960	      8.56075193	     72.08828666	      1.25817795	     -0.59672818	     -9.88779344	      0.00000000	     -0.07945083	      0.92663265	      0.17761909	     -0.14754814	      1.23242143	      0.18872029	     -0.13052977	      2.25301463	      0.18872029	     -0.09080435	      2.25301463	      0.15541671	     -0.07377804	      1.88958931	      0.14431551	     -0.04539820	      1.43535398	      0.13321432	     -0.56750933	     10.48225390	      0.98786410	      0.00000000	      0.00000000	     -0.00000000	      0.00000000	      0.00000001	     65.10406537	    -15.12151317	     33.62809006	     40.02619549	     60.02455038	      0.00000000	      5.43412914	     63.48447842	     -6.20874489	     17.38111805	     32.32059198	     59.01949648	      0.00000000	      5.43412914
      0.02500000	    -43.92002731	     -3.87297034	     -0.92761740	     -0.38402636	      1.12936485	      0.01023977	    108.45849818	     -6.89287019	     -5.57538736	     79.52478205	      1.38796928	     14.75862057	     -4.37016889	      0.00000000	     86.79268302	     -3.93298829	      8.20793142	     73.47347251	      1.28235401	     -0.49579694	     -9.84301012	      0.00000000	     -0.08141351	      0.90492189	      0.10035887	     -0.15119303	      1.20354611	      0.10663130	     -0.13375425	      2.20022708	      0.10663130	     -0.09304750	      2.20022708	      0.08781401	     -0.07560058	      1.84531672	      0.08154158	     -0.04651968	      1.40172401	      0.07526915	     -0.58152854	     10.23665741	      0.55816593	      0.00000000	      0.00000000	     -0.00000000	      0.00000000	      0.00000001	     65.14467186	    -15.10813355	     33.53549792	     39.98965510	     60.02073151	      0.00000000	      5.43241915	     63.57222792	     -6.20287636	     17.43642265	     32.31418390	     59.03500921	      0.00000000	      5.43241915
      0.03300000	    -43.88440402	     -3.96734314	     -0.69676252	     -0.38403307	      1.12926988	      0.01011391	    107.34428558	     -6.94772836	     -5.72187465	     77.64708349	      1.35519726	     14.68516353	     -4.23912558	      0.00000000	     87.66100694	     -3.83331900	      8.20130952	     75.24102919	      1.31320369	     -0.74361506	     -9.37114663	      0.00000000	     -0.07926033	      0.91857528	      0.06779789	     -0.14719435	      1.22170512	      0.07203525	     -0.13021679	      2.23342393	      0.07203525	     -0.09058663	      2.23342393	      0.05932315	     -0.07360114	      1.87315870	      0.05508578	     -0.04528935	      1.42287310	      0.05084842	     -0.56614859	     10.39110724	      0.37707151	      0.00000000	      0.00000000	     -0.00000000	      0.00000000	      0.00000001	     65.21350228	    -14.94730948	     33.14673126	     39.63206069	     60.00077949	      0.00000000	      5.42588925	     63.57507198	     -6.21619149	     17.81122796	     32.22304950	     59.12457831	      0.00000000	      5.42588925
